<?xml version="1.0" standalone="no"?>
<!DOCTYPE svg PUBLIC "-//W3C//DTD SVG 20010904//EN"
 "http://www.w3.org/TR/2001/REC-SVG-20010904/DTD/svg10.dtd">
<svg version="1.0" xmlns="http://www.w3.org/2000/svg"
 width="340.000000pt" height="340.000000pt" viewBox="0 0 340.000000 340.000000"
 preserveAspectRatio="xMidYMid meet">
<metadata>
Created by potrace 1.11, written by Peter Selinger 2001-2013
</metadata>
<g transform="translate(0.000000,340.000000) scale(0.100000,-0.100000)"
fill="#000000" stroke="none">
<path d="M1200 3391 c0 -5 -17 -16 -37 -24 -34 -13 -42 -24 -75 -102 -21 -47
-54 -111 -74 -141 -22 -33 -34 -60 -30 -71 4 -10 -13 -48 -47 -102 -96 -153
-94 -149 -90 -221 4 -65 22 -108 24 -59 4 79 9 99 34 145 23 44 85 100 85 78
0 -4 -16 -62 -35 -129 -27 -96 -124 -477 -140 -555 -10 -46 -66 -266 -85 -330
-11 -41 -23 -86 -26 -99 -3 -13 -6 -26 -6 -30 -3 -12 14 -76 23 -87 15 -18 92
-15 121 4 48 32 115 132 200 300 12 23 24 42 27 42 4 0 18 -31 32 -69 l25 -68
-29 -84 c-15 -46 -34 -86 -40 -88 -21 -8 -70 -67 -139 -171 -38 -58 -88 -122
-111 -142 -39 -36 -42 -41 -43 -95 -1 -55 -6 -68 -112 -248 -62 -104 -112
-198 -112 -208 0 -37 -50 -118 -286 -469 l-244 -363 769 -3 c423 -1 1118 -1
1545 0 l775 3 -34 80 c-20 44 -37 89 -39 100 -2 11 -18 74 -36 140 -18 66 -35
129 -38 140 -3 11 -18 37 -35 58 -16 21 -53 93 -82 161 l-52 122 148 98 c140
93 151 102 199 176 72 110 110 231 115 369 4 105 -9 203 -33 247 -11 20 -25
282 -25 450 0 74 3 87 33 140 29 52 33 67 35 148 3 111 43 303 86 411 27 67
32 94 32 165 1 84 -9 189 -18 198 -2 3 3 18 11 35 9 16 18 59 21 93 l5 64
-1096 0 c-635 0 -1096 -4 -1096 -9z m1635 -1894 c49 -107 69 -162 72 -200 l3
-52 -84 -67 c-120 -94 -118 -94 -146 -1 -27 88 -28 94 -33 218 -4 98 -7 91 71
214 19 29 37 49 41 45 4 -5 38 -76 76 -157z"/>
</g>
</svg>
